<?xml version="1.0" encoding="utf-8" standalone="no"?>
<!DOCTYPE svg PUBLIC "-//W3C//DTD SVG 1.1//EN"
  "http://www.w3.org/Graphics/SVG/1.1/DTD/svg11.dtd">
<!-- Created with matplotlib (https://matplotlib.org/) -->
<svg height="573.6pt" version="1.1" viewBox="0 0 576 573.6" width="576pt" xmlns="http://www.w3.org/2000/svg" xmlns:xlink="http://www.w3.org/1999/xlink">
 <defs>
  <style type="text/css">
*{stroke-linecap:butt;stroke-linejoin:round;}
  </style>
 </defs>
 <g id="figure_1">
  <g id="patch_1">
   <path d="M 0 573.6 
L 576 573.6 
L 576 0 
L 0 0 
z
" style="fill:#ffffff;"/>
  </g>
  <g id="patch_2">
   <path d="M 72 510.504 
L 518.4 510.504 
L 518.4 68.832 
L 72 68.832 
z
" style="fill:#ffffff;"/>
  </g>
  <g id="pane3d_1">
   <g id="patch_3">
    <path d="M 131.177218 412.910053 
L 258.939234 304.622087 
L 256.812132 97.701555 
L 121.926546 194.996066 
" style="fill:#f2f2f2;opacity:0.5;stroke:#f2f2f2;stroke-linejoin:miter;"/>
   </g>
  </g>
  <g id="pane3d_2">
   <g id="patch_4">
    <path d="M 258.939234 304.622087 
L 465.901687 365.162048 
L 474.560748 152.001912 
L 256.812132 97.701555 
" style="fill:#e6e6e6;opacity:0.5;stroke:#e6e6e6;stroke-linejoin:miter;"/>
   </g>
  </g>
  <g id="pane3d_3">
   <g id="patch_5">
    <path d="M 131.177218 412.910053 
L 348.929684 483.418703 
L 465.901687 365.162048 
L 258.939234 304.622087 
" style="fill:#ececec;opacity:0.5;stroke:#ececec;stroke-linejoin:miter;"/>
   </g>
  </g>
  <g id="axis3d_1">
   <g id="line2d_1">
    <path d="M 131.177218 412.910053 
L 348.929684 483.418703 
" style="fill:none;stroke:#000000;stroke-linecap:square;stroke-width:0.8;"/>
   </g>
   <g id="text_1">
    <!-- z -->
    <defs>
     <path d="M 5.515625 54.6875 
L 48.1875 54.6875 
L 48.1875 46.484375 
L 14.40625 7.171875 
L 48.1875 7.171875 
L 48.1875 0 
L 4.296875 0 
L 4.296875 8.203125 
L 38.09375 47.515625 
L 5.515625 47.515625 
z
" id="DejaVuSans-122"/>
    </defs>
    <g transform="translate(220.955211 486.070456)scale(0.1 -0.1)">
     <use xlink:href="#DejaVuSans-122"/>
    </g>
   </g>
   <g id="Line3DCollection_1">
    <path d="M 162.071702 422.913744 
L 288.38745 313.23618 
L 287.737243 105.413405 
" style="fill:none;stroke:#b0b0b0;stroke-width:0.8;"/>
    <path d="M 199.517069 435.038623 
L 324.04229 323.665814 
L 325.205903 114.757031 
" style="fill:none;stroke:#b0b0b0;stroke-width:0.8;"/>
    <path d="M 237.565599 447.358807 
L 360.229327 334.251124 
L 363.262586 124.247293 
" style="fill:none;stroke:#b0b0b0;stroke-width:0.8;"/>
    <path d="M 276.231985 459.879054 
L 396.960564 344.995622 
L 401.921244 133.887671 
" style="fill:none;stroke:#b0b0b0;stroke-width:0.8;"/>
    <path d="M 315.531398 472.604276 
L 434.24837 355.902926 
L 441.196275 143.681754 
" style="fill:none;stroke:#b0b0b0;stroke-width:0.8;"/>
   </g>
   <g id="xtick_1">
    <g id="line2d_2">
     <path d="M 163.16027 421.968561 
L 159.890489 424.807649 
" style="fill:none;stroke:#000000;stroke-linecap:square;stroke-width:0.8;"/>
    </g>
    <g id="text_2">
     <!-- −1.0 -->
     <defs>
      <path d="M 10.59375 35.5 
L 73.1875 35.5 
L 73.1875 27.203125 
L 10.59375 27.203125 
z
" id="DejaVuSans-8722"/>
      <path d="M 12.40625 8.296875 
L 28.515625 8.296875 
L 28.515625 63.921875 
L 10.984375 60.40625 
L 10.984375 69.390625 
L 28.421875 72.90625 
L 38.28125 72.90625 
L 38.28125 8.296875 
L 54.390625 8.296875 
L 54.390625 0 
L 12.40625 0 
z
" id="DejaVuSans-49"/>
      <path d="M 10.6875 12.40625 
L 21 12.40625 
L 21 0 
L 10.6875 0 
z
" id="DejaVuSans-46"/>
      <path d="M 31.78125 66.40625 
Q 24.171875 66.40625 20.328125 58.90625 
Q 16.5 51.421875 16.5 36.375 
Q 16.5 21.390625 20.328125 13.890625 
Q 24.171875 6.390625 31.78125 6.390625 
Q 39.453125 6.390625 43.28125 13.890625 
Q 47.125 21.390625 47.125 36.375 
Q 47.125 51.421875 43.28125 58.90625 
Q 39.453125 66.40625 31.78125 66.40625 
z
M 31.78125 74.21875 
Q 44.046875 74.21875 50.515625 64.515625 
Q 56.984375 54.828125 56.984375 36.375 
Q 56.984375 17.96875 50.515625 8.265625 
Q 44.046875 -1.421875 31.78125 -1.421875 
Q 19.53125 -1.421875 13.0625 8.265625 
Q 6.59375 17.96875 6.59375 36.375 
Q 6.59375 54.828125 13.0625 64.515625 
Q 19.53125 74.21875 31.78125 74.21875 
z
" id="DejaVuSans-48"/>
     </defs>
     <g transform="translate(143.510937 446.731014)scale(0.1 -0.1)">
      <use xlink:href="#DejaVuSans-8722"/>
      <use x="83.789062" xlink:href="#DejaVuSans-49"/>
      <use x="147.412109" xlink:href="#DejaVuSans-46"/>
      <use x="179.199219" xlink:href="#DejaVuSans-48"/>
     </g>
    </g>
   </g>
   <g id="xtick_2">
    <g id="line2d_3">
     <path d="M 200.590821 434.078281 
L 197.365512 436.962931 
" style="fill:none;stroke:#000000;stroke-linecap:square;stroke-width:0.8;"/>
    </g>
    <g id="text_3">
     <!-- −0.5 -->
     <defs>
      <path d="M 10.796875 72.90625 
L 49.515625 72.90625 
L 49.515625 64.59375 
L 19.828125 64.59375 
L 19.828125 46.734375 
Q 21.96875 47.46875 24.109375 47.828125 
Q 26.265625 48.1875 28.421875 48.1875 
Q 40.625 48.1875 47.75 41.5 
Q 54.890625 34.8125 54.890625 23.390625 
Q 54.890625 11.625 47.5625 5.09375 
Q 40.234375 -1.421875 26.90625 -1.421875 
Q 22.3125 -1.421875 17.546875 -0.640625 
Q 12.796875 0.140625 7.71875 1.703125 
L 7.71875 11.625 
Q 12.109375 9.234375 16.796875 8.0625 
Q 21.484375 6.890625 26.703125 6.890625 
Q 35.15625 6.890625 40.078125 11.328125 
Q 45.015625 15.765625 45.015625 23.390625 
Q 45.015625 31 40.078125 35.4375 
Q 35.15625 39.890625 26.703125 39.890625 
Q 22.75 39.890625 18.8125 39.015625 
Q 14.890625 38.140625 10.796875 36.28125 
z
" id="DejaVuSans-53"/>
     </defs>
     <g transform="translate(180.95375 459.001445)scale(0.1 -0.1)">
      <use xlink:href="#DejaVuSans-8722"/>
      <use x="83.789062" xlink:href="#DejaVuSans-48"/>
      <use x="147.412109" xlink:href="#DejaVuSans-46"/>
      <use x="179.199219" xlink:href="#DejaVuSans-53"/>
     </g>
    </g>
   </g>
   <g id="xtick_3">
    <g id="line2d_4">
     <path d="M 238.623915 446.382939 
L 235.444941 449.314256 
" style="fill:none;stroke:#000000;stroke-linecap:square;stroke-width:0.8;"/>
    </g>
    <g id="text_4">
     <!-- 0.0 -->
     <g transform="translate(223.190321 471.469785)scale(0.1 -0.1)">
      <use xlink:href="#DejaVuSans-48"/>
      <use x="63.623047" xlink:href="#DejaVuSans-46"/>
      <use x="95.410156" xlink:href="#DejaVuSans-48"/>
     </g>
    </g>
   </g>
   <g id="xtick_4">
    <g id="line2d_5">
     <path d="M 277.27422 458.88728 
L 274.143518 461.866406 
" style="fill:none;stroke:#000000;stroke-linecap:square;stroke-width:0.8;"/>
    </g>
    <g id="text_5">
     <!-- 0.5 -->
     <g transform="translate(261.855692 484.140862)scale(0.1 -0.1)">
      <use xlink:href="#DejaVuSans-48"/>
      <use x="63.623047" xlink:href="#DejaVuSans-46"/>
      <use x="95.410156" xlink:href="#DejaVuSans-53"/>
     </g>
    </g>
   </g>
   <g id="xtick_5">
    <g id="line2d_6">
     <path d="M 316.556882 471.596204 
L 313.476466 474.624319 
" style="fill:none;stroke:#000000;stroke-linecap:square;stroke-width:0.8;"/>
    </g>
    <g id="text_6">
     <!-- 1.0 -->
     <g transform="translate(301.15492 497.019661)scale(0.1 -0.1)">
      <use xlink:href="#DejaVuSans-49"/>
      <use x="63.623047" xlink:href="#DejaVuSans-46"/>
      <use x="95.410156" xlink:href="#DejaVuSans-48"/>
     </g>
    </g>
   </g>
  </g>
  <g id="axis3d_2">
   <g id="line2d_7">
    <path d="M 465.901687 365.162048 
L 348.929684 483.418703 
" style="fill:none;stroke:#000000;stroke-linecap:square;stroke-width:0.8;"/>
   </g>
   <g id="text_7">
    <!-- x -->
    <defs>
     <path d="M 54.890625 54.6875 
L 35.109375 28.078125 
L 55.90625 0 
L 45.3125 0 
L 29.390625 21.484375 
L 13.484375 0 
L 2.875 0 
L 24.125 28.609375 
L 4.6875 54.6875 
L 15.28125 54.6875 
L 29.78125 35.203125 
L 44.28125 54.6875 
z
" id="DejaVuSans-120"/>
    </defs>
    <g transform="translate(430.082791 454.519706)scale(0.1 -0.1)">
     <use xlink:href="#DejaVuSans-120"/>
    </g>
   </g>
   <g id="Line3DCollection_2">
    <path d="M 143.194738 179.655077 
L 151.25611 395.891674 
L 367.364857 464.781065 
" style="fill:none;stroke:#b0b0b0;stroke-width:0.8;"/>
    <path d="M 167.945862 161.801809 
L 174.654243 376.059988 
L 388.823016 443.08724 
" style="fill:none;stroke:#b0b0b0;stroke-width:0.8;"/>
    <path d="M 192.013047 144.441874 
L 197.437937 356.749085 
L 409.692352 421.988705 
" style="fill:none;stroke:#b0b0b0;stroke-width:0.8;"/>
    <path d="M 215.424253 127.555104 
L 219.631081 337.938718 
L 429.996772 401.461291 
" style="fill:none;stroke:#b0b0b0;stroke-width:0.8;"/>
    <path d="M 238.20594 111.122413 
L 241.256341 319.609675 
L 449.758909 381.482115 
" style="fill:none;stroke:#b0b0b0;stroke-width:0.8;"/>
   </g>
   <g id="xtick_6">
    <g id="line2d_8">
     <path d="M 365.556752 464.204692 
L 370.98508 465.93509 
" style="fill:none;stroke:#000000;stroke-linecap:square;stroke-width:0.8;"/>
    </g>
    <g id="text_8">
     <!-- −1.0 -->
     <g transform="translate(366.286834 486.451218)scale(0.1 -0.1)">
      <use xlink:href="#DejaVuSans-8722"/>
      <use x="83.789062" xlink:href="#DejaVuSans-49"/>
      <use x="147.412109" xlink:href="#DejaVuSans-46"/>
      <use x="179.199219" xlink:href="#DejaVuSans-48"/>
     </g>
    </g>
   </g>
   <g id="xtick_7">
    <g id="line2d_9">
     <path d="M 387.032235 442.526789 
L 392.408499 444.209369 
" style="fill:none;stroke:#000000;stroke-linecap:square;stroke-width:0.8;"/>
    </g>
    <g id="text_9">
     <!-- −0.5 -->
     <g transform="translate(387.583623 464.569311)scale(0.1 -0.1)">
      <use xlink:href="#DejaVuSans-8722"/>
      <use x="83.789062" xlink:href="#DejaVuSans-48"/>
      <use x="147.412109" xlink:href="#DejaVuSans-46"/>
      <use x="179.199219" xlink:href="#DejaVuSans-53"/>
     </g>
    </g>
   </g>
   <g id="xtick_8">
    <g id="line2d_10">
     <path d="M 407.91863 421.443525 
L 413.243626 423.080243 
" style="fill:none;stroke:#000000;stroke-linecap:square;stroke-width:0.8;"/>
    </g>
    <g id="text_10">
     <!-- 0.0 -->
     <g transform="translate(412.486062 443.287648)scale(0.1 -0.1)">
      <use xlink:href="#DejaVuSans-48"/>
      <use x="63.623047" xlink:href="#DejaVuSans-46"/>
      <use x="95.410156" xlink:href="#DejaVuSans-48"/>
     </g>
    </g>
   </g>
   <g id="xtick_9">
    <g id="line2d_11">
     <path d="M 428.239849 400.930765 
L 433.514362 402.523471 
" style="fill:none;stroke:#000000;stroke-linecap:square;stroke-width:0.8;"/>
    </g>
    <g id="text_11">
     <!-- 0.5 -->
     <g transform="translate(432.638176 422.581865)scale(0.1 -0.1)">
      <use xlink:href="#DejaVuSans-48"/>
      <use x="63.623047" xlink:href="#DejaVuSans-46"/>
      <use x="95.410156" xlink:href="#DejaVuSans-53"/>
     </g>
    </g>
   </g>
   <g id="xtick_10">
    <g id="line2d_12">
     <path d="M 448.018525 380.965662 
L 453.243335 382.516107 
" style="fill:none;stroke:#000000;stroke-linecap:square;stroke-width:0.8;"/>
    </g>
    <g id="text_12">
     <!-- 1.0 -->
     <g transform="translate(452.252255 402.428899)scale(0.1 -0.1)">
      <use xlink:href="#DejaVuSans-49"/>
      <use x="63.623047" xlink:href="#DejaVuSans-46"/>
      <use x="95.410156" xlink:href="#DejaVuSans-48"/>
     </g>
    </g>
   </g>
  </g>
  <g id="axis3d_3">
   <g id="line2d_13">
    <path d="M 465.901687 365.162048 
L 474.560748 152.001912 
" style="fill:none;stroke:#000000;stroke-linecap:square;stroke-width:0.8;"/>
   </g>
   <g id="text_13">
    <!-- y -->
    <defs>
     <path d="M 32.171875 -5.078125 
Q 28.375 -14.84375 24.75 -17.8125 
Q 21.140625 -20.796875 15.09375 -20.796875 
L 7.90625 -20.796875 
L 7.90625 -13.28125 
L 13.1875 -13.28125 
Q 16.890625 -13.28125 18.9375 -11.515625 
Q 21 -9.765625 23.484375 -3.21875 
L 25.09375 0.875 
L 2.984375 54.6875 
L 12.5 54.6875 
L 29.59375 11.921875 
L 46.6875 54.6875 
L 56.203125 54.6875 
z
" id="DejaVuSans-121"/>
    </defs>
    <g transform="translate(502.955536 259.327022)scale(0.1 -0.1)">
     <use xlink:href="#DejaVuSans-121"/>
    </g>
   </g>
   <g id="Line3DCollection_3">
    <path d="M 467.124396 335.062612 
L 258.638312 275.349016 
L 129.8729 382.184808 
" style="fill:none;stroke:#b0b0b0;stroke-width:0.8;"/>
    <path d="M 468.608944 298.517509 
L 258.273199 239.831457 
L 128.288416 344.859809 
" style="fill:none;stroke:#b0b0b0;stroke-width:0.8;"/>
    <path d="M 470.120301 261.312424 
L 257.901772 203.699725 
L 126.674356 306.838113 
" style="fill:none;stroke:#b0b0b0;stroke-width:0.8;"/>
    <path d="M 471.659201 223.429316 
L 257.523866 166.937752 
L 125.029884 268.10003 
" style="fill:none;stroke:#b0b0b0;stroke-width:0.8;"/>
    <path d="M 473.226403 184.849481 
L 257.13931 129.528902 
L 123.354134 228.625121 
" style="fill:none;stroke:#b0b0b0;stroke-width:0.8;"/>
   </g>
   <g id="xtick_11">
    <g id="line2d_14">
     <path d="M 465.384418 334.564256 
L 470.607995 336.060368 
" style="fill:none;stroke:#000000;stroke-linecap:square;stroke-width:0.8;"/>
    </g>
    <g id="text_14">
     <!-- −1.0 -->
     <g transform="translate(471.192256 340.396223)scale(0.1 -0.1)">
      <use xlink:href="#DejaVuSans-8722"/>
      <use x="83.789062" xlink:href="#DejaVuSans-49"/>
      <use x="147.412109" xlink:href="#DejaVuSans-46"/>
      <use x="179.199219" xlink:href="#DejaVuSans-48"/>
     </g>
    </g>
   </g>
   <g id="xtick_12">
    <g id="line2d_15">
     <path d="M 466.852878 298.027547 
L 472.124784 299.498468 
" style="fill:none;stroke:#000000;stroke-linecap:square;stroke-width:0.8;"/>
    </g>
    <g id="text_15">
     <!-- −0.5 -->
     <g transform="translate(472.819253 303.889292)scale(0.1 -0.1)">
      <use xlink:href="#DejaVuSans-8722"/>
      <use x="83.789062" xlink:href="#DejaVuSans-48"/>
      <use x="147.412109" xlink:href="#DejaVuSans-46"/>
      <use x="179.199219" xlink:href="#DejaVuSans-53"/>
     </g>
    </g>
   </g>
   <g id="xtick_13">
    <g id="line2d_16">
     <path d="M 468.347848 260.831241 
L 473.668985 262.275814 
" style="fill:none;stroke:#000000;stroke-linecap:square;stroke-width:0.8;"/>
    </g>
    <g id="text_16">
     <!-- 0.0 -->
     <g transform="translate(478.66543 266.724132)scale(0.1 -0.1)">
      <use xlink:href="#DejaVuSans-48"/>
      <use x="63.623047" xlink:href="#DejaVuSans-46"/>
      <use x="95.410156" xlink:href="#DejaVuSans-48"/>
     </g>
    </g>
   </g>
   <g id="xtick_14">
    <g id="line2d_17">
     <path d="M 469.870052 222.957316 
L 475.241347 224.374331 
" style="fill:none;stroke:#000000;stroke-linecap:square;stroke-width:0.8;"/>
    </g>
    <g id="text_17">
     <!-- 0.5 -->
     <g transform="translate(480.351898 228.882779)scale(0.1 -0.1)">
      <use xlink:href="#DejaVuSans-48"/>
      <use x="63.623047" xlink:href="#DejaVuSans-46"/>
      <use x="95.410156" xlink:href="#DejaVuSans-53"/>
     </g>
    </g>
   </g>
   <g id="xtick_15">
    <g id="line2d_18">
     <path d="M 471.420242 184.387084 
L 476.842648 185.775278 
" style="fill:none;stroke:#000000;stroke-linecap:square;stroke-width:0.8;"/>
    </g>
    <g id="text_18">
     <!-- 1.0 -->
     <g transform="translate(482.069332 190.34661)scale(0.1 -0.1)">
      <use xlink:href="#DejaVuSans-49"/>
      <use x="63.623047" xlink:href="#DejaVuSans-46"/>
      <use x="95.410156" xlink:href="#DejaVuSans-48"/>
     </g>
    </g>
   </g>
  </g>
  <g id="axes_1">
   <g id="line2d_19">
    <path clip-path="url(#peac3c910dd)" d="M 365.339241 303.508494 
L 365.197132 304.781487 
L 365.047216 306.054177 
L 364.889505 307.326527 
L 364.724009 308.598501 
L 364.550741 309.870065 
L 364.369712 311.141182 
L 364.180933 312.411816 
L 363.984417 313.681932 
L 363.780176 314.951495 
L 363.568223 316.220469 
L 363.348569 317.488819 
L 363.121228 318.756509 
L 362.886212 320.023504 
L 362.643535 321.28977 
L 362.39321 322.555271 
L 362.13525 323.819972 
L 361.86967 325.083838 
L 361.596481 326.346836 
L 361.3157 327.608929 
L 361.027339 328.870083 
L 360.731413 330.130264 
L 360.427937 331.389438 
L 360.116924 332.647569 
L 359.798391 333.904624 
L 359.472351 335.160569 
L 359.13882 336.415369 
L 358.797813 337.66899 
L 358.449346 338.921399 
L 358.093434 340.172561 
L 357.730092 341.422443 
L 382.855416 386.352838 
L 383.236896 385.075945 
L 383.610754 383.79777 
L 383.976974 382.518347 
L 384.335539 381.237712 
L 384.686433 379.955899 
L 385.029639 378.672943 
L 385.365143 377.388877 
L 385.692927 376.103738 
L 386.012977 374.817559 
L 386.325278 373.530376 
L 386.629813 372.242224 
L 386.926569 370.953137 
L 387.215529 369.663152 
L 387.49668 368.372303 
L 387.770006 367.080627 
L 388.035494 365.788157 
L 388.293129 364.494931 
L 388.542897 363.200983 
L 388.784784 361.906349 
L 389.018777 360.611065 
L 389.244862 359.315167 
L 389.463026 358.018691 
L 389.673255 356.721673 
L 389.875538 355.42415 
L 390.069859 354.126156 
L 390.256209 352.827729 
L 390.434573 351.528905 
L 390.604939 350.22972 
L 390.767297 348.930211 
L 390.921632 347.630415 
L 365.339241 303.508494 
" style="fill:none;stroke:#000000;stroke-linecap:square;stroke-width:1.5;"/>
   </g>
   <g id="line2d_20">
    <path clip-path="url(#peac3c910dd)" d="M 365.928631 265.403116 
L 366.024651 266.66819 
L 366.112622 267.934068 
L 366.192549 269.200712 
L 366.264437 270.468086 
L 366.328293 271.73615 
L 366.38412 273.004869 
L 366.431927 274.274203 
L 366.471718 275.544115 
L 366.5035 276.814568 
L 366.52728 278.085525 
L 366.543065 279.356947 
L 366.550861 280.628798 
L 366.550676 281.90104 
L 366.542517 283.173636 
L 366.526393 284.44655 
L 366.502309 285.719743 
L 366.470276 286.993178 
L 366.4303 288.26682 
L 366.382391 289.540631 
L 366.326557 290.814573 
L 366.262807 292.088611 
L 366.19115 293.362707 
L 366.111595 294.636826 
L 366.024151 295.910929 
L 365.928828 297.184982 
L 365.825637 298.458947 
L 365.714586 299.732788 
L 365.595687 301.006469 
L 365.468948 302.279953 
L 365.334382 303.553205 
L 390.916348 347.676067 
L 391.062934 346.376028 
L 391.201475 345.075773 
L 391.331961 343.775341 
L 391.45438 342.474766 
L 391.568722 341.174087 
L 391.674976 339.87334 
L 391.773131 338.572563 
L 391.863177 337.271792 
L 391.945104 335.971066 
L 392.018902 334.67042 
L 392.084561 333.369893 
L 392.142072 332.069523 
L 392.191425 330.769346 
L 392.232612 329.4694 
L 392.265622 328.169723 
L 392.290448 326.870353 
L 392.307081 325.571327 
L 392.315512 324.272684 
L 392.315734 322.974461 
L 392.307739 321.676696 
L 392.291519 320.379427 
L 392.267065 319.082693 
L 392.234372 317.786532 
L 392.193432 316.490981 
L 392.144239 315.19608 
L 392.086785 313.901866 
L 392.021063 312.608378 
L 391.947069 311.315655 
L 391.864796 310.023734 
L 391.774238 308.732655 
L 365.928631 265.403116 
" style="fill:none;stroke:#000000;stroke-linecap:square;stroke-width:1.5;"/>
   </g>
   <g id="line2d_21">
    <path clip-path="url(#peac3c910dd)" d="M 359.300909 228.057539 
L 359.63939 229.280727 
L 359.969774 230.505873 
L 360.292058 231.732937 
L 360.606242 232.961882 
L 360.912323 234.192669 
L 361.2103 235.425258 
L 361.500173 236.65961 
L 361.781942 237.895688 
L 362.055605 239.133451 
L 362.321163 240.372861 
L 362.578616 241.61388 
L 362.827964 242.856468 
L 363.069208 244.100587 
L 363.302349 245.346199 
L 363.527387 246.593264 
L 363.744325 247.841744 
L 363.953163 249.091601 
L 364.153904 250.342795 
L 364.346549 251.59529 
L 364.531101 252.849045 
L 364.707562 254.104023 
L 364.875934 255.360185 
L 365.036222 256.617493 
L 365.188427 257.875909 
L 365.332554 259.135395 
L 365.468605 260.395912 
L 365.596585 261.657421 
L 365.716498 262.919887 
L 365.828348 264.183269 
L 365.932139 265.44753 
L 391.777559 308.777981 
L 391.679002 307.487751 
L 391.572149 306.198438 
L 391.456996 304.910081 
L 391.333537 303.62272 
L 391.201768 302.336392 
L 391.061685 301.051137 
L 390.913282 299.766994 
L 390.756557 298.484002 
L 390.591506 297.202199 
L 390.418124 295.921625 
L 390.236409 294.64232 
L 390.046357 293.364321 
L 389.847967 292.087669 
L 389.641234 290.812403 
L 389.426157 289.538561 
L 389.202734 288.266184 
L 388.970963 286.995311 
L 388.730842 285.72598 
L 388.482369 284.458233 
L 388.225545 283.192107 
L 387.960367 281.927643 
L 387.686835 280.66488 
L 387.404948 279.403858 
L 387.114707 278.144617 
L 386.816112 276.887195 
L 386.509162 275.631634 
L 386.193858 274.377971 
L 385.870202 273.126248 
L 385.538194 271.876504 
L 385.197835 270.628779 
L 359.300909 228.057539 
" style="fill:none;stroke:#000000;stroke-linecap:square;stroke-width:1.5;"/>
   </g>
   <g id="line2d_22">
    <path clip-path="url(#peac3c910dd)" d="M 325.314784 272.647801 
L 325.348397 273.398704 
L 325.390601 274.150363 
L 325.441408 274.902758 
L 325.500832 275.655865 
L 325.568885 276.409663 
L 325.645578 277.164128 
L 325.730923 277.919237 
L 325.824933 278.674968 
L 325.927618 279.431298 
L 326.038989 280.188204 
L 326.159058 280.945662 
L 326.287835 281.70365 
L 326.42533 282.462144 
L 326.571553 283.22112 
L 326.726514 283.980555 
L 326.890222 284.740426 
L 327.062687 285.500709 
L 327.243918 286.261379 
L 327.433923 287.022413 
L 327.63271 287.783788 
L 327.840288 288.545478 
L 328.056665 289.30746 
L 328.281848 290.06971 
L 328.515844 290.832203 
L 328.75866 291.594915 
L 329.010302 292.357821 
L 329.270779 293.120896 
L 329.540094 293.884116 
L 329.818254 294.647457 
L 330.105265 295.410893 
L 329.560818 373.164983 
L 329.27951 372.374038 
L 329.006879 371.583175 
L 328.742922 370.79242 
L 328.487632 370.001798 
L 328.241003 369.211337 
L 328.003031 368.42106 
L 327.773707 367.630993 
L 327.553027 366.841162 
L 327.340983 366.051592 
L 327.137568 365.262308 
L 326.942774 364.473335 
L 326.756595 363.684698 
L 326.579021 362.896422 
L 326.410045 362.108532 
L 326.249658 361.321052 
L 326.097852 360.534007 
L 325.954617 359.747422 
L 325.819944 358.96132 
L 325.693824 358.175727 
L 325.576246 357.390667 
L 325.467201 356.606163 
L 325.366678 355.82224 
L 325.274667 355.038921 
L 325.191156 354.25623 
L 325.116135 353.474192 
L 325.049592 352.69283 
L 324.991516 351.912167 
L 324.941895 351.132227 
L 324.900716 350.353032 
L 324.867968 349.574607 
L 325.314784 272.647801 
" style="fill:none;stroke:#000000;stroke-linecap:square;stroke-width:1.5;"/>
   </g>
   <g id="line2d_23">
    <path clip-path="url(#peac3c910dd)" d="M 330.095036 295.384081 
L 330.390591 296.147585 
L 330.695007 296.911135 
L 331.008288 297.674707 
L 331.330438 298.438274 
L 331.661461 299.201812 
L 332.00136 299.965295 
L 332.35014 300.728698 
L 332.707803 301.491995 
L 333.074351 302.25516 
L 333.449787 303.018169 
L 333.834114 303.780995 
L 334.227332 304.543613 
L 334.629444 305.305996 
L 335.040449 306.068119 
L 335.46035 306.829955 
L 335.889146 307.591479 
L 336.326837 308.352663 
L 336.773423 309.113483 
L 337.228904 309.873912 
L 337.693278 310.633922 
L 338.166544 311.393489 
L 338.648701 312.152584 
L 339.139746 312.911183 
L 339.639677 313.669257 
L 340.148492 314.42678 
L 340.666187 315.183726 
L 341.192759 315.940068 
L 341.728204 316.695778 
L 342.272519 317.45083 
L 342.825698 318.205196 
L 342.028771 396.773112 
L 341.486602 395.992045 
L 340.953118 395.210254 
L 340.428323 394.427764 
L 339.912221 393.644605 
L 339.404816 392.860804 
L 338.906111 392.076389 
L 338.416111 391.291387 
L 337.934817 390.505826 
L 337.462233 389.719735 
L 336.99836 388.933139 
L 336.5432 388.146068 
L 336.096756 387.358547 
L 335.659027 386.570605 
L 335.230016 385.782268 
L 334.809722 384.993565 
L 334.398146 384.204521 
L 333.995288 383.415164 
L 333.601146 382.625522 
L 333.215722 381.83562 
L 332.839012 381.045485 
L 332.471017 380.255145 
L 332.111733 379.464626 
L 331.76116 378.673955 
L 331.419294 377.883158 
L 331.086134 377.092261 
L 330.761675 376.301292 
L 330.445916 375.510275 
L 330.138851 374.719238 
L 329.840478 373.928206 
L 329.550792 373.137205 
L 330.095036 295.384081 
" style="fill:none;stroke:#000000;stroke-linecap:square;stroke-width:1.5;"/>
   </g>
   <g id="line2d_24">
    <path clip-path="url(#peac3c910dd)" d="M 342.806121 318.178716 
L 343.367849 318.932396 
L 343.938431 319.685337 
L 344.517863 320.437512 
L 345.106137 321.188895 
L 345.703249 321.939457 
L 346.309191 322.689171 
L 346.923957 323.43801 
L 347.547538 324.185946 
L 348.179927 324.932953 
L 348.821116 325.679002 
L 349.471097 326.424066 
L 350.12986 327.168116 
L 350.797396 327.911127 
L 351.473696 328.653069 
L 352.158749 329.393915 
L 352.852545 330.133637 
L 353.555073 330.872208 
L 354.266322 331.609599 
L 354.986281 332.345783 
L 355.714937 333.080731 
L 356.452277 333.814416 
L 357.19829 334.546809 
L 357.952961 335.277883 
L 358.716278 336.00761 
L 359.488226 336.735961 
L 360.268791 337.462908 
L 361.057958 338.188424 
L 361.855712 338.912479 
L 362.662038 339.635046 
L 363.476919 340.356097 
L 362.26598 419.700887 
L 361.467541 418.954764 
L 360.677477 418.207058 
L 359.895804 417.457797 
L 359.122536 416.70701 
L 358.357689 415.954727 
L 357.601279 415.200976 
L 356.853318 414.445787 
L 356.113821 413.689188 
L 355.382802 412.931209 
L 354.660274 412.171878 
L 353.946248 411.411225 
L 353.240739 410.649278 
L 352.543757 409.886065 
L 351.855315 409.121617 
L 351.175423 408.355961 
L 350.504092 407.589127 
L 349.841333 406.821143 
L 349.187156 406.052037 
L 348.541571 405.281839 
L 347.904587 404.510577 
L 347.276212 403.73828 
L 346.656456 402.964975 
L 346.045327 402.190692 
L 345.442832 401.415459 
L 344.848979 400.639305 
L 344.263776 399.862256 
L 343.687228 399.084343 
L 343.119343 398.305593 
L 342.560126 397.526034 
L 342.009583 396.745694 
L 342.806121 318.178716 
" style="fill:none;stroke:#000000;stroke-linecap:square;stroke-width:1.5;"/>
   </g>
   <g id="line2d_25">
    <path clip-path="url(#peac3c910dd)" d="M 461.235118 289.822044 
L 458.229894 367.374367 
L 371.549525 454.675684 
L 372.977529 374.171469 
L 461.235118 289.822044 
" style="fill:none;stroke:#000000;stroke-linecap:square;stroke-width:1.5;"/>
   </g>
   <g id="line2d_26">
    <path clip-path="url(#peac3c910dd)" d="M 301.232432 264.634291 
L 378.386098 286.36594 
L 334.942025 335.381431 
L 417.007535 369.860815 
" style="fill:none;stroke:#0000ff;stroke-linecap:square;stroke-width:2;"/>
    <defs>
     <path d="M 0 2 
C 0.530406 2 1.03916 1.789267 1.414214 1.414214 
C 1.789267 1.03916 2 0.530406 2 0 
C 2 -0.530406 1.789267 -1.03916 1.414214 -1.414214 
C 1.03916 -1.789267 0.530406 -2 0 -2 
C -0.530406 -2 -1.03916 -1.789267 -1.414214 -1.414214 
C -1.789267 -1.03916 -2 -0.530406 -2 0 
C -2 0.530406 -1.789267 1.03916 -1.414214 1.414214 
C -1.03916 1.789267 -0.530406 2 0 2 
z
" id="md9d5a5d0b3" style="stroke:#0000ff;"/>
    </defs>
    <g clip-path="url(#peac3c910dd)">
     <use style="fill:#0000ff;stroke:#0000ff;" x="301.232432" xlink:href="#md9d5a5d0b3" y="264.634291"/>
     <use style="fill:#0000ff;stroke:#0000ff;" x="378.386098" xlink:href="#md9d5a5d0b3" y="286.36594"/>
     <use style="fill:#0000ff;stroke:#0000ff;" x="334.942025" xlink:href="#md9d5a5d0b3" y="335.381431"/>
     <use style="fill:#0000ff;stroke:#0000ff;" x="417.007535" xlink:href="#md9d5a5d0b3" y="369.860815"/>
    </g>
   </g>
   <g id="line2d_27">
    <path clip-path="url(#peac3c910dd)" d="M 290.081616 293.25407 
L 388.394667 321.59414 
L 345.30078 361.707928 
L 414.953127 372.912265 
" style="fill:none;stroke:#0000ff;stroke-linecap:square;stroke-width:2;"/>
    <g clip-path="url(#peac3c910dd)">
     <use style="fill:#0000ff;stroke:#0000ff;" x="290.081616" xlink:href="#md9d5a5d0b3" y="293.25407"/>
     <use style="fill:#0000ff;stroke:#0000ff;" x="388.394667" xlink:href="#md9d5a5d0b3" y="321.59414"/>
     <use style="fill:#0000ff;stroke:#0000ff;" x="345.30078" xlink:href="#md9d5a5d0b3" y="361.707928"/>
     <use style="fill:#0000ff;stroke:#0000ff;" x="414.953127" xlink:href="#md9d5a5d0b3" y="372.912265"/>
    </g>
   </g>
   <g id="line2d_28">
    <path clip-path="url(#peac3c910dd)" d="M 301.232432 283.699459 
L 379.195184 305.966998 
L 335.131914 346.286771 
L 417.267447 370.64027 
" style="fill:none;stroke:#0000ff;stroke-linecap:square;stroke-width:2;"/>
    <g clip-path="url(#peac3c910dd)">
     <use style="fill:#0000ff;stroke:#0000ff;" x="301.232432" xlink:href="#md9d5a5d0b3" y="283.699459"/>
     <use style="fill:#0000ff;stroke:#0000ff;" x="379.195184" xlink:href="#md9d5a5d0b3" y="305.966998"/>
     <use style="fill:#0000ff;stroke:#0000ff;" x="335.131914" xlink:href="#md9d5a5d0b3" y="346.286771"/>
     <use style="fill:#0000ff;stroke:#0000ff;" x="417.267447" xlink:href="#md9d5a5d0b3" y="370.64027"/>
    </g>
   </g>
   <g id="line2d_29">
    <path clip-path="url(#peac3c910dd)" d="M 312.230773 274.275499 
L 370.1965 290.680953 
L 327.889257 328.7476 
L 415.584081 372.292851 
" style="fill:none;stroke:#0000ff;stroke-linecap:square;stroke-width:2;"/>
    <g clip-path="url(#peac3c910dd)">
     <use style="fill:#0000ff;stroke:#0000ff;" x="312.230773" xlink:href="#md9d5a5d0b3" y="274.275499"/>
     <use style="fill:#0000ff;stroke:#0000ff;" x="370.1965" xlink:href="#md9d5a5d0b3" y="290.680953"/>
     <use style="fill:#0000ff;stroke:#0000ff;" x="327.889257" xlink:href="#md9d5a5d0b3" y="328.7476"/>
     <use style="fill:#0000ff;stroke:#0000ff;" x="415.584081" xlink:href="#md9d5a5d0b3" y="372.292851"/>
    </g>
   </g>
   <g id="line2d_30">
    <path clip-path="url(#peac3c910dd)" d="M 301.232432 302.590433 
L 377.669992 324.721562 
L 334.770872 356.114137 
L 416.946675 371.989245 
" style="fill:none;stroke:#0000ff;stroke-linecap:square;stroke-width:2;"/>
    <g clip-path="url(#peac3c910dd)">
     <use style="fill:#0000ff;stroke:#0000ff;" x="301.232432" xlink:href="#md9d5a5d0b3" y="302.590433"/>
     <use style="fill:#0000ff;stroke:#0000ff;" x="377.669992" xlink:href="#md9d5a5d0b3" y="324.721562"/>
     <use style="fill:#0000ff;stroke:#0000ff;" x="334.770872" xlink:href="#md9d5a5d0b3" y="356.114137"/>
     <use style="fill:#0000ff;stroke:#0000ff;" x="416.946675" xlink:href="#md9d5a5d0b3" y="371.989245"/>
    </g>
   </g>
   <g id="text_19">
    <!-- Room(Optical Table with 5 beams and 7 elements) -->
    <defs>
     <path d="M 44.390625 34.1875 
Q 47.5625 33.109375 50.5625 29.59375 
Q 53.5625 26.078125 56.59375 19.921875 
L 66.609375 0 
L 56 0 
L 46.6875 18.703125 
Q 43.0625 26.03125 39.671875 28.421875 
Q 36.28125 30.8125 30.421875 30.8125 
L 19.671875 30.8125 
L 19.671875 0 
L 9.8125 0 
L 9.8125 72.90625 
L 32.078125 72.90625 
Q 44.578125 72.90625 50.734375 67.671875 
Q 56.890625 62.453125 56.890625 51.90625 
Q 56.890625 45.015625 53.6875 40.46875 
Q 50.484375 35.9375 44.390625 34.1875 
z
M 19.671875 64.796875 
L 19.671875 38.921875 
L 32.078125 38.921875 
Q 39.203125 38.921875 42.84375 42.21875 
Q 46.484375 45.515625 46.484375 51.90625 
Q 46.484375 58.296875 42.84375 61.546875 
Q 39.203125 64.796875 32.078125 64.796875 
z
" id="DejaVuSans-82"/>
     <path d="M 30.609375 48.390625 
Q 23.390625 48.390625 19.1875 42.75 
Q 14.984375 37.109375 14.984375 27.296875 
Q 14.984375 17.484375 19.15625 11.84375 
Q 23.34375 6.203125 30.609375 6.203125 
Q 37.796875 6.203125 41.984375 11.859375 
Q 46.1875 17.53125 46.1875 27.296875 
Q 46.1875 37.015625 41.984375 42.703125 
Q 37.796875 48.390625 30.609375 48.390625 
z
M 30.609375 56 
Q 42.328125 56 49.015625 48.375 
Q 55.71875 40.765625 55.71875 27.296875 
Q 55.71875 13.875 49.015625 6.21875 
Q 42.328125 -1.421875 30.609375 -1.421875 
Q 18.84375 -1.421875 12.171875 6.21875 
Q 5.515625 13.875 5.515625 27.296875 
Q 5.515625 40.765625 12.171875 48.375 
Q 18.84375 56 30.609375 56 
z
" id="DejaVuSans-111"/>
     <path d="M 52 44.1875 
Q 55.375 50.25 60.0625 53.125 
Q 64.75 56 71.09375 56 
Q 79.640625 56 84.28125 50.015625 
Q 88.921875 44.046875 88.921875 33.015625 
L 88.921875 0 
L 79.890625 0 
L 79.890625 32.71875 
Q 79.890625 40.578125 77.09375 44.375 
Q 74.3125 48.1875 68.609375 48.1875 
Q 61.625 48.1875 57.5625 43.546875 
Q 53.515625 38.921875 53.515625 30.90625 
L 53.515625 0 
L 44.484375 0 
L 44.484375 32.71875 
Q 44.484375 40.625 41.703125 44.40625 
Q 38.921875 48.1875 33.109375 48.1875 
Q 26.21875 48.1875 22.15625 43.53125 
Q 18.109375 38.875 18.109375 30.90625 
L 18.109375 0 
L 9.078125 0 
L 9.078125 54.6875 
L 18.109375 54.6875 
L 18.109375 46.1875 
Q 21.1875 51.21875 25.484375 53.609375 
Q 29.78125 56 35.6875 56 
Q 41.65625 56 45.828125 52.96875 
Q 50 49.953125 52 44.1875 
z
" id="DejaVuSans-109"/>
     <path d="M 31 75.875 
Q 24.46875 64.65625 21.28125 53.65625 
Q 18.109375 42.671875 18.109375 31.390625 
Q 18.109375 20.125 21.3125 9.0625 
Q 24.515625 -2 31 -13.1875 
L 23.1875 -13.1875 
Q 15.875 -1.703125 12.234375 9.375 
Q 8.59375 20.453125 8.59375 31.390625 
Q 8.59375 42.28125 12.203125 53.3125 
Q 15.828125 64.359375 23.1875 75.875 
z
" id="DejaVuSans-40"/>
     <path d="M 39.40625 66.21875 
Q 28.65625 66.21875 22.328125 58.203125 
Q 16.015625 50.203125 16.015625 36.375 
Q 16.015625 22.609375 22.328125 14.59375 
Q 28.65625 6.59375 39.40625 6.59375 
Q 50.140625 6.59375 56.421875 14.59375 
Q 62.703125 22.609375 62.703125 36.375 
Q 62.703125 50.203125 56.421875 58.203125 
Q 50.140625 66.21875 39.40625 66.21875 
z
M 39.40625 74.21875 
Q 54.734375 74.21875 63.90625 63.9375 
Q 73.09375 53.65625 73.09375 36.375 
Q 73.09375 19.140625 63.90625 8.859375 
Q 54.734375 -1.421875 39.40625 -1.421875 
Q 24.03125 -1.421875 14.8125 8.828125 
Q 5.609375 19.09375 5.609375 36.375 
Q 5.609375 53.65625 14.8125 63.9375 
Q 24.03125 74.21875 39.40625 74.21875 
z
" id="DejaVuSans-79"/>
     <path d="M 18.109375 8.203125 
L 18.109375 -20.796875 
L 9.078125 -20.796875 
L 9.078125 54.6875 
L 18.109375 54.6875 
L 18.109375 46.390625 
Q 20.953125 51.265625 25.265625 53.625 
Q 29.59375 56 35.59375 56 
Q 45.5625 56 51.78125 48.09375 
Q 58.015625 40.1875 58.015625 27.296875 
Q 58.015625 14.40625 51.78125 6.484375 
Q 45.5625 -1.421875 35.59375 -1.421875 
Q 29.59375 -1.421875 25.265625 0.953125 
Q 20.953125 3.328125 18.109375 8.203125 
z
M 48.6875 27.296875 
Q 48.6875 37.203125 44.609375 42.84375 
Q 40.53125 48.484375 33.40625 48.484375 
Q 26.265625 48.484375 22.1875 42.84375 
Q 18.109375 37.203125 18.109375 27.296875 
Q 18.109375 17.390625 22.1875 11.75 
Q 26.265625 6.109375 33.40625 6.109375 
Q 40.53125 6.109375 44.609375 11.75 
Q 48.6875 17.390625 48.6875 27.296875 
z
" id="DejaVuSans-112"/>
     <path d="M 18.3125 70.21875 
L 18.3125 54.6875 
L 36.8125 54.6875 
L 36.8125 47.703125 
L 18.3125 47.703125 
L 18.3125 18.015625 
Q 18.3125 11.328125 20.140625 9.421875 
Q 21.96875 7.515625 27.59375 7.515625 
L 36.8125 7.515625 
L 36.8125 0 
L 27.59375 0 
Q 17.1875 0 13.234375 3.875 
Q 9.28125 7.765625 9.28125 18.015625 
L 9.28125 47.703125 
L 2.6875 47.703125 
L 2.6875 54.6875 
L 9.28125 54.6875 
L 9.28125 70.21875 
z
" id="DejaVuSans-116"/>
     <path d="M 9.421875 54.6875 
L 18.40625 54.6875 
L 18.40625 0 
L 9.421875 0 
z
M 9.421875 75.984375 
L 18.40625 75.984375 
L 18.40625 64.59375 
L 9.421875 64.59375 
z
" id="DejaVuSans-105"/>
     <path d="M 48.78125 52.59375 
L 48.78125 44.1875 
Q 44.96875 46.296875 41.140625 47.34375 
Q 37.3125 48.390625 33.40625 48.390625 
Q 24.65625 48.390625 19.8125 42.84375 
Q 14.984375 37.3125 14.984375 27.296875 
Q 14.984375 17.28125 19.8125 11.734375 
Q 24.65625 6.203125 33.40625 6.203125 
Q 37.3125 6.203125 41.140625 7.25 
Q 44.96875 8.296875 48.78125 10.40625 
L 48.78125 2.09375 
Q 45.015625 0.34375 40.984375 -0.53125 
Q 36.96875 -1.421875 32.421875 -1.421875 
Q 20.0625 -1.421875 12.78125 6.34375 
Q 5.515625 14.109375 5.515625 27.296875 
Q 5.515625 40.671875 12.859375 48.328125 
Q 20.21875 56 33.015625 56 
Q 37.15625 56 41.109375 55.140625 
Q 45.0625 54.296875 48.78125 52.59375 
z
" id="DejaVuSans-99"/>
     <path d="M 34.28125 27.484375 
Q 23.390625 27.484375 19.1875 25 
Q 14.984375 22.515625 14.984375 16.5 
Q 14.984375 11.71875 18.140625 8.90625 
Q 21.296875 6.109375 26.703125 6.109375 
Q 34.1875 6.109375 38.703125 11.40625 
Q 43.21875 16.703125 43.21875 25.484375 
L 43.21875 27.484375 
z
M 52.203125 31.203125 
L 52.203125 0 
L 43.21875 0 
L 43.21875 8.296875 
Q 40.140625 3.328125 35.546875 0.953125 
Q 30.953125 -1.421875 24.3125 -1.421875 
Q 15.921875 -1.421875 10.953125 3.296875 
Q 6 8.015625 6 15.921875 
Q 6 25.140625 12.171875 29.828125 
Q 18.359375 34.515625 30.609375 34.515625 
L 43.21875 34.515625 
L 43.21875 35.40625 
Q 43.21875 41.609375 39.140625 45 
Q 35.0625 48.390625 27.6875 48.390625 
Q 23 48.390625 18.546875 47.265625 
Q 14.109375 46.140625 10.015625 43.890625 
L 10.015625 52.203125 
Q 14.9375 54.109375 19.578125 55.046875 
Q 24.21875 56 28.609375 56 
Q 40.484375 56 46.34375 49.84375 
Q 52.203125 43.703125 52.203125 31.203125 
z
" id="DejaVuSans-97"/>
     <path d="M 9.421875 75.984375 
L 18.40625 75.984375 
L 18.40625 0 
L 9.421875 0 
z
" id="DejaVuSans-108"/>
     <path id="DejaVuSans-32"/>
     <path d="M -0.296875 72.90625 
L 61.375 72.90625 
L 61.375 64.59375 
L 35.5 64.59375 
L 35.5 0 
L 25.59375 0 
L 25.59375 64.59375 
L -0.296875 64.59375 
z
" id="DejaVuSans-84"/>
     <path d="M 48.6875 27.296875 
Q 48.6875 37.203125 44.609375 42.84375 
Q 40.53125 48.484375 33.40625 48.484375 
Q 26.265625 48.484375 22.1875 42.84375 
Q 18.109375 37.203125 18.109375 27.296875 
Q 18.109375 17.390625 22.1875 11.75 
Q 26.265625 6.109375 33.40625 6.109375 
Q 40.53125 6.109375 44.609375 11.75 
Q 48.6875 17.390625 48.6875 27.296875 
z
M 18.109375 46.390625 
Q 20.953125 51.265625 25.265625 53.625 
Q 29.59375 56 35.59375 56 
Q 45.5625 56 51.78125 48.09375 
Q 58.015625 40.1875 58.015625 27.296875 
Q 58.015625 14.40625 51.78125 6.484375 
Q 45.5625 -1.421875 35.59375 -1.421875 
Q 29.59375 -1.421875 25.265625 0.953125 
Q 20.953125 3.328125 18.109375 8.203125 
L 18.109375 0 
L 9.078125 0 
L 9.078125 75.984375 
L 18.109375 75.984375 
z
" id="DejaVuSans-98"/>
     <path d="M 56.203125 29.59375 
L 56.203125 25.203125 
L 14.890625 25.203125 
Q 15.484375 15.921875 20.484375 11.0625 
Q 25.484375 6.203125 34.421875 6.203125 
Q 39.59375 6.203125 44.453125 7.46875 
Q 49.3125 8.734375 54.109375 11.28125 
L 54.109375 2.78125 
Q 49.265625 0.734375 44.1875 -0.34375 
Q 39.109375 -1.421875 33.890625 -1.421875 
Q 20.796875 -1.421875 13.15625 6.1875 
Q 5.515625 13.8125 5.515625 26.8125 
Q 5.515625 40.234375 12.765625 48.109375 
Q 20.015625 56 32.328125 56 
Q 43.359375 56 49.78125 48.890625 
Q 56.203125 41.796875 56.203125 29.59375 
z
M 47.21875 32.234375 
Q 47.125 39.59375 43.09375 43.984375 
Q 39.0625 48.390625 32.421875 48.390625 
Q 24.90625 48.390625 20.390625 44.140625 
Q 15.875 39.890625 15.1875 32.171875 
z
" id="DejaVuSans-101"/>
     <path d="M 4.203125 54.6875 
L 13.1875 54.6875 
L 24.421875 12.015625 
L 35.59375 54.6875 
L 46.1875 54.6875 
L 57.421875 12.015625 
L 68.609375 54.6875 
L 77.59375 54.6875 
L 63.28125 0 
L 52.6875 0 
L 40.921875 44.828125 
L 29.109375 0 
L 18.5 0 
z
" id="DejaVuSans-119"/>
     <path d="M 54.890625 33.015625 
L 54.890625 0 
L 45.90625 0 
L 45.90625 32.71875 
Q 45.90625 40.484375 42.875 44.328125 
Q 39.84375 48.1875 33.796875 48.1875 
Q 26.515625 48.1875 22.3125 43.546875 
Q 18.109375 38.921875 18.109375 30.90625 
L 18.109375 0 
L 9.078125 0 
L 9.078125 75.984375 
L 18.109375 75.984375 
L 18.109375 46.1875 
Q 21.34375 51.125 25.703125 53.5625 
Q 30.078125 56 35.796875 56 
Q 45.21875 56 50.046875 50.171875 
Q 54.890625 44.34375 54.890625 33.015625 
z
" id="DejaVuSans-104"/>
     <path d="M 44.28125 53.078125 
L 44.28125 44.578125 
Q 40.484375 46.53125 36.375 47.5 
Q 32.28125 48.484375 27.875 48.484375 
Q 21.1875 48.484375 17.84375 46.4375 
Q 14.5 44.390625 14.5 40.28125 
Q 14.5 37.15625 16.890625 35.375 
Q 19.28125 33.59375 26.515625 31.984375 
L 29.59375 31.296875 
Q 39.15625 29.25 43.1875 25.515625 
Q 47.21875 21.78125 47.21875 15.09375 
Q 47.21875 7.46875 41.1875 3.015625 
Q 35.15625 -1.421875 24.609375 -1.421875 
Q 20.21875 -1.421875 15.453125 -0.5625 
Q 10.6875 0.296875 5.421875 2 
L 5.421875 11.28125 
Q 10.40625 8.6875 15.234375 7.390625 
Q 20.0625 6.109375 24.8125 6.109375 
Q 31.15625 6.109375 34.5625 8.28125 
Q 37.984375 10.453125 37.984375 14.40625 
Q 37.984375 18.0625 35.515625 20.015625 
Q 33.0625 21.96875 24.703125 23.78125 
L 21.578125 24.515625 
Q 13.234375 26.265625 9.515625 29.90625 
Q 5.8125 33.546875 5.8125 39.890625 
Q 5.8125 47.609375 11.28125 51.796875 
Q 16.75 56 26.8125 56 
Q 31.78125 56 36.171875 55.265625 
Q 40.578125 54.546875 44.28125 53.078125 
z
" id="DejaVuSans-115"/>
     <path d="M 54.890625 33.015625 
L 54.890625 0 
L 45.90625 0 
L 45.90625 32.71875 
Q 45.90625 40.484375 42.875 44.328125 
Q 39.84375 48.1875 33.796875 48.1875 
Q 26.515625 48.1875 22.3125 43.546875 
Q 18.109375 38.921875 18.109375 30.90625 
L 18.109375 0 
L 9.078125 0 
L 9.078125 54.6875 
L 18.109375 54.6875 
L 18.109375 46.1875 
Q 21.34375 51.125 25.703125 53.5625 
Q 30.078125 56 35.796875 56 
Q 45.21875 56 50.046875 50.171875 
Q 54.890625 44.34375 54.890625 33.015625 
z
" id="DejaVuSans-110"/>
     <path d="M 45.40625 46.390625 
L 45.40625 75.984375 
L 54.390625 75.984375 
L 54.390625 0 
L 45.40625 0 
L 45.40625 8.203125 
Q 42.578125 3.328125 38.25 0.953125 
Q 33.9375 -1.421875 27.875 -1.421875 
Q 17.96875 -1.421875 11.734375 6.484375 
Q 5.515625 14.40625 5.515625 27.296875 
Q 5.515625 40.1875 11.734375 48.09375 
Q 17.96875 56 27.875 56 
Q 33.9375 56 38.25 53.625 
Q 42.578125 51.265625 45.40625 46.390625 
z
M 14.796875 27.296875 
Q 14.796875 17.390625 18.875 11.75 
Q 22.953125 6.109375 30.078125 6.109375 
Q 37.203125 6.109375 41.296875 11.75 
Q 45.40625 17.390625 45.40625 27.296875 
Q 45.40625 37.203125 41.296875 42.84375 
Q 37.203125 48.484375 30.078125 48.484375 
Q 22.953125 48.484375 18.875 42.84375 
Q 14.796875 37.203125 14.796875 27.296875 
z
" id="DejaVuSans-100"/>
     <path d="M 8.203125 72.90625 
L 55.078125 72.90625 
L 55.078125 68.703125 
L 28.609375 0 
L 18.3125 0 
L 43.21875 64.59375 
L 8.203125 64.59375 
z
" id="DejaVuSans-55"/>
     <path d="M 8.015625 75.875 
L 15.828125 75.875 
Q 23.140625 64.359375 26.78125 53.3125 
Q 30.421875 42.28125 30.421875 31.390625 
Q 30.421875 20.453125 26.78125 9.375 
Q 23.140625 -1.703125 15.828125 -13.1875 
L 8.015625 -13.1875 
Q 14.5 -2 17.703125 9.0625 
Q 20.90625 20.125 20.90625 31.390625 
Q 20.90625 42.671875 17.703125 53.65625 
Q 14.5 64.65625 8.015625 75.875 
z
" id="DejaVuSans-41"/>
    </defs>
    <g transform="translate(142.4625 98.16576)scale(0.12 -0.12)">
     <use xlink:href="#DejaVuSans-82"/>
     <use x="69.419922" xlink:href="#DejaVuSans-111"/>
     <use x="130.601562" xlink:href="#DejaVuSans-111"/>
     <use x="191.783203" xlink:href="#DejaVuSans-109"/>
     <use x="289.195312" xlink:href="#DejaVuSans-40"/>
     <use x="328.208984" xlink:href="#DejaVuSans-79"/>
     <use x="406.919922" xlink:href="#DejaVuSans-112"/>
     <use x="470.396484" xlink:href="#DejaVuSans-116"/>
     <use x="509.605469" xlink:href="#DejaVuSans-105"/>
     <use x="537.388672" xlink:href="#DejaVuSans-99"/>
     <use x="592.369141" xlink:href="#DejaVuSans-97"/>
     <use x="653.648438" xlink:href="#DejaVuSans-108"/>
     <use x="681.431641" xlink:href="#DejaVuSans-32"/>
     <use x="713.21875" xlink:href="#DejaVuSans-84"/>
     <use x="774.052734" xlink:href="#DejaVuSans-97"/>
     <use x="835.332031" xlink:href="#DejaVuSans-98"/>
     <use x="898.808594" xlink:href="#DejaVuSans-108"/>
     <use x="926.591797" xlink:href="#DejaVuSans-101"/>
     <use x="988.115234" xlink:href="#DejaVuSans-32"/>
     <use x="1019.902344" xlink:href="#DejaVuSans-119"/>
     <use x="1101.689453" xlink:href="#DejaVuSans-105"/>
     <use x="1129.472656" xlink:href="#DejaVuSans-116"/>
     <use x="1168.681641" xlink:href="#DejaVuSans-104"/>
     <use x="1232.060547" xlink:href="#DejaVuSans-32"/>
     <use x="1263.847656" xlink:href="#DejaVuSans-53"/>
     <use x="1327.470703" xlink:href="#DejaVuSans-32"/>
     <use x="1359.257812" xlink:href="#DejaVuSans-98"/>
     <use x="1422.734375" xlink:href="#DejaVuSans-101"/>
     <use x="1484.257812" xlink:href="#DejaVuSans-97"/>
     <use x="1545.537109" xlink:href="#DejaVuSans-109"/>
     <use x="1642.949219" xlink:href="#DejaVuSans-115"/>
     <use x="1695.048828" xlink:href="#DejaVuSans-32"/>
     <use x="1726.835938" xlink:href="#DejaVuSans-97"/>
     <use x="1788.115234" xlink:href="#DejaVuSans-110"/>
     <use x="1851.494141" xlink:href="#DejaVuSans-100"/>
     <use x="1914.970703" xlink:href="#DejaVuSans-32"/>
     <use x="1946.757812" xlink:href="#DejaVuSans-55"/>
     <use x="2010.380859" xlink:href="#DejaVuSans-32"/>
     <use x="2042.167969" xlink:href="#DejaVuSans-101"/>
     <use x="2103.691406" xlink:href="#DejaVuSans-108"/>
     <use x="2131.474609" xlink:href="#DejaVuSans-101"/>
     <use x="2192.998047" xlink:href="#DejaVuSans-109"/>
     <use x="2290.410156" xlink:href="#DejaVuSans-101"/>
     <use x="2351.933594" xlink:href="#DejaVuSans-110"/>
     <use x="2415.3125" xlink:href="#DejaVuSans-116"/>
     <use x="2454.521484" xlink:href="#DejaVuSans-115"/>
     <use x="2506.621094" xlink:href="#DejaVuSans-41"/>
    </g>
   </g>
  </g>
 </g>
 <defs>
  <clipPath id="peac3c910dd">
   <rect height="441.672" width="446.4" x="72" y="68.832"/>
  </clipPath>
 </defs>
</svg>
